<svg width="141" height="141" viewBox="0 0 141 141" fill="none" xmlns="http://www.w3.org/2000/svg">
<g filter="url(#filter0_ii_0_1)">
<path d="M141 70.5C141 109.436 109.436 141 70.5 141C31.5639 141 0 109.436 0 70.5C0 31.5639 31.5639 0 70.5 0C109.436 0 141 31.5639 141 70.5ZM6.15317 70.5C6.15317 106.038 34.9622 134.847 70.5 134.847C106.038 134.847 134.847 106.038 134.847 70.5C134.847 34.9622 106.038 6.15317 70.5 6.15317C34.9622 6.15317 6.15317 34.9622 6.15317 70.5Z" fill="#ECECEC"/>
</g>
<g filter="url(#filter1_i_0_1)">
<circle cx="70.5" cy="70.5" r="64.5" fill="#ECECEC"/>
</g>
<g filter="url(#filter2_i_0_1)">
<circle cx="70.5" cy="70.5" r="59.5" fill="#CBCBCB"/>
</g>
<line x1="70.65" y1="26" x2="70.65" y2="14" stroke="black" stroke-width="0.7"/>
<line x1="70.65" y1="128" x2="70.65" y2="116" stroke="black" stroke-width="0.7"/>
<line x1="26" y1="70.35" x2="14" y2="70.35" stroke="black" stroke-width="0.7"/>
<line x1="128" y1="70.35" x2="116" y2="70.35" stroke="black" stroke-width="0.7"/>
<line x1="31.8543" y1="47.8031" x2="21.462" y2="41.8031" stroke="black" stroke-width="0.7"/>
<line x1="120.188" y1="98.8031" x2="109.796" y2="92.8031" stroke="black" stroke-width="0.7"/>
<line x1="48.1969" y1="31.204" x2="42.1969" y2="20.8117" stroke="black" stroke-width="0.7"/>
<line x1="99.1969" y1="119.539" x2="93.1969" y2="109.146" stroke="black" stroke-width="0.7"/>
<line x1="93.1969" y1="30.854" x2="99.1969" y2="20.4617" stroke="black" stroke-width="0.7"/>
<line x1="42.1969" y1="119.189" x2="48.1969" y2="108.796" stroke="black" stroke-width="0.7"/>
<line x1="109.796" y1="47.197" x2="120.188" y2="41.197" stroke="black" stroke-width="0.7"/>
<line x1="21.4617" y1="98.197" x2="31.854" y2="92.197" stroke="black" stroke-width="0.7"/>
<defs>
<filter id="filter0_ii_0_1" x="-2" y="-1" width="147.6" height="146.6" filterUnits="userSpaceOnUse" color-interpolation-filters="sRGB">
<feFlood flood-opacity="0" result="BackgroundImageFix"/>
<feBlend mode="normal" in="SourceGraphic" in2="BackgroundImageFix" result="shape"/>
<feColorMatrix in="SourceAlpha" type="matrix" values="0 0 0 0 0 0 0 0 0 0 0 0 0 0 0 0 0 0 127 0" result="hardAlpha"/>
<feOffset dx="-2" dy="-1"/>
<feGaussianBlur stdDeviation="2.25"/>
<feComposite in2="hardAlpha" operator="arithmetic" k2="-1" k3="1"/>
<feColorMatrix type="matrix" values="0 0 0 0 0 0 0 0 0 0 0 0 0 0 0 0 0 0 0.25 0"/>
<feBlend mode="normal" in2="shape" result="effect1_innerShadow_0_1"/>
<feColorMatrix in="SourceAlpha" type="matrix" values="0 0 0 0 0 0 0 0 0 0 0 0 0 0 0 0 0 0 127 0" result="hardAlpha"/>
<feOffset dx="7" dy="7"/>
<feGaussianBlur stdDeviation="2.3"/>
<feComposite in2="hardAlpha" operator="arithmetic" k2="-1" k3="1"/>
<feColorMatrix type="matrix" values="0 0 0 0 0 0 0 0 0 0 0 0 0 0 0 0 0 0 0.12 0"/>
<feBlend mode="normal" in2="effect1_innerShadow_0_1" result="effect2_innerShadow_0_1"/>
</filter>
<filter id="filter1_i_0_1" x="6" y="6" width="144" height="143" filterUnits="userSpaceOnUse" color-interpolation-filters="sRGB">
<feFlood flood-opacity="0" result="BackgroundImageFix"/>
<feBlend mode="normal" in="SourceGraphic" in2="BackgroundImageFix" result="shape"/>
<feColorMatrix in="SourceAlpha" type="matrix" values="0 0 0 0 0 0 0 0 0 0 0 0 0 0 0 0 0 0 127 0" result="hardAlpha"/>
<feOffset dx="15" dy="14"/>
<feGaussianBlur stdDeviation="10.45"/>
<feComposite in2="hardAlpha" operator="arithmetic" k2="-1" k3="1"/>
<feColorMatrix type="matrix" values="0 0 0 0 0 0 0 0 0 0 0 0 0 0 0 0 0 0 0.43 0"/>
<feBlend mode="normal" in2="shape" result="effect1_innerShadow_0_1"/>
</filter>
<filter id="filter2_i_0_1" x="11" y="11" width="128" height="126" filterUnits="userSpaceOnUse" color-interpolation-filters="sRGB">
<feFlood flood-opacity="0" result="BackgroundImageFix"/>
<feBlend mode="normal" in="SourceGraphic" in2="BackgroundImageFix" result="shape"/>
<feColorMatrix in="SourceAlpha" type="matrix" values="0 0 0 0 0 0 0 0 0 0 0 0 0 0 0 0 0 0 127 0" result="hardAlpha"/>
<feOffset dx="9" dy="7"/>
<feGaussianBlur stdDeviation="8.9"/>
<feComposite in2="hardAlpha" operator="arithmetic" k2="-1" k3="1"/>
<feColorMatrix type="matrix" values="0 0 0 0 0 0 0 0 0 0 0 0 0 0 0 0 0 0 0.39 0"/>
<feBlend mode="normal" in2="shape" result="effect1_innerShadow_0_1"/>
</filter>
</defs>
</svg>
